<svg width="32" height="32" viewBox="0 0 32 32" fill="none" xmlns="http://www.w3.org/2000/svg">
<path d="M1.33398 25.0667C1.33398 21.5321 4.19936 18.6667 7.73398 18.6667H13.6007C17.1353 18.6667 20.0007 21.5321 20.0007 25.0667V25.0667C20.0007 27.4232 18.0904 29.3334 15.734 29.3334H5.60065C3.24424 29.3334 1.33398 27.4232 1.33398 25.0667V25.0667Z" fill="#425563"/>
<path d="M16.0007 8.00008C16.0007 10.9456 13.6128 13.3334 10.6673 13.3334C7.7218 13.3334 5.33398 10.9456 5.33398 8.00008C5.33398 5.05456 7.7218 2.66675 10.6673 2.66675C13.6128 2.66675 16.0007 5.05456 16.0007 8.00008Z" fill="#425563"/>
<path d="M20.0007 13.3334C22.9462 13.3334 25.334 10.9456 25.334 8.00008C25.334 5.05456 22.9462 2.66675 20.0007 2.66675M22.6673 29.3334H26.4007C28.7571 29.3334 30.6673 27.4232 30.6673 25.0667V25.0667C30.6673 21.5321 27.8019 18.6667 24.2673 18.6667H22.6673M16.0007 8.00008C16.0007 10.9456 13.6128 13.3334 10.6673 13.3334C7.7218 13.3334 5.33398 10.9456 5.33398 8.00008C5.33398 5.05456 7.7218 2.66675 10.6673 2.66675C13.6128 2.66675 16.0007 5.05456 16.0007 8.00008ZM5.60065 29.3334H15.734C18.0904 29.3334 20.0007 27.4232 20.0007 25.0667V25.0667C20.0007 21.5321 17.1353 18.6667 13.6007 18.6667H7.73398C4.19936 18.6667 1.33398 21.5321 1.33398 25.0667V25.0667C1.33398 27.4232 3.24424 29.3334 5.60065 29.3334Z" stroke="#F0F0F0" stroke-width="2" stroke-linecap="round" stroke-linejoin="round"/>
</svg>
